# xmcd
# 
# Track frame offsets:
#     183
#     14778
#     30403
#     43325
#     50428
#     65205
#     80083
#     89155
#     104973
#     115610
# 
# Disc length: 1730
# 
# Revision: 3
# Processed by: cddbd v1.5.2PL0 Copyright (c) Steve Scherf et al.
# Submitted via: fre:ac v1.0.17
# 
DISCID=9606c00a
DTITLE=Billie Holiday - Lover Man
DYEAR=1999
DGENRE=Blues
TTITLE0=Lover Man
TTITLE1=Stormy Weather
TTITLE2=My Man
TTITLE3=Them There Eyes
TTITLE4=They Can't Take That Away From Me
TTITLE5=Don't Explain
TTITLE6=What A Little Moonlight Can Do
TTITLE7=Willow Weep for Me
TTITLE8=Lover Come Back to Me
TTITLE9=God Bless The Child
EXTD=
EXTT0=
EXTT1=
EXTT2=
EXTT3=
EXTT4=
EXTT5=
EXTT6=
EXTT7=
EXTT8=
EXTT9=
PLAYORDER=
